<svg width="25" height="10" viewBox="0 0 25 10" fill="none" xmlns="http://www.w3.org/2000/svg">
<path d="M24.1346 0.651123L6.57658 8.12712C5.12058 8.74312 3.89758 9.05212 2.90858 9.05212C1.78858 9.05212 0.975579 8.66012 0.471579 7.87512C0.154579 7.37112 0.0615795 6.73212 0.191579 5.95712C0.321579 5.18212 0.667579 4.35712 1.22758 3.47912C1.69458 2.76912 2.45958 1.83612 3.52458 0.679123C3.16334 1.24779 2.89845 1.87218 2.74058 2.52712C2.46058 3.72212 2.71258 4.59912 3.49658 5.15912C3.86958 5.42012 4.38258 5.55112 5.03658 5.55112C5.55858 5.55112 6.14658 5.46712 6.80058 5.29912L24.1346 0.651123Z" fill="black"/>
</svg>
