<svg width="25" height="24" viewBox="0 0 25 24" fill="none" xmlns="http://www.w3.org/2000/svg">
<path d="M13.7414 2.37837V2.30337C13.7414 1.95337 13.8544 1.64037 14.0794 1.36537C14.3044 1.09037 14.5914 0.953369 14.9414 0.953369C15.2914 0.953369 15.6044 1.06537 15.8794 1.29037C16.1544 1.51537 16.3044 1.81537 16.3294 2.19037C16.3544 2.56537 16.2414 2.87837 15.9914 3.12837C15.7414 3.37837 15.4414 3.50337 15.0914 3.50337L14.8664 3.57837L14.9414 3.69037L14.8664 4.10337L14.7164 5.30337C14.7664 5.35337 14.7914 5.40337 14.7914 5.45337L14.6414 6.20337C14.5914 6.30337 14.5414 6.37837 14.4914 6.42837L14.4164 6.72837C14.2855 7.25864 14.1354 7.78398 13.9664 8.30337V8.45337C13.9164 8.70337 13.8794 8.90337 13.8544 9.05337C13.8294 9.20337 13.7414 9.45337 13.5914 9.80337C13.4914 10.0034 13.4914 10.3284 13.5914 10.7784L13.6664 10.8534C13.6664 11.0034 13.7294 11.1784 13.8544 11.3784C13.9794 11.5784 14.0414 11.7534 14.0414 11.9034C14.0914 12.9034 14.0164 13.7534 13.8164 14.4534L13.9664 14.9034C14.5664 15.2034 14.7414 15.5284 14.4914 15.8784L14.8664 16.0284C15.4664 16.3284 15.8914 16.5904 16.1414 16.8154C16.3914 17.0404 16.6414 17.2784 16.8914 17.5284C17.0914 17.5784 17.2414 17.6534 17.3414 17.7534L17.5664 17.8284C18.6164 18.5284 19.6664 19.3784 20.7164 20.3784L21.0164 20.6034V20.6784L20.9414 20.8284L21.1664 20.9784H21.2414C21.3914 21.0784 21.4914 21.1284 21.5414 21.1284H21.6164C21.6664 21.1284 21.7164 21.1034 21.7664 21.0534L21.9164 20.9784C22.0164 20.8784 22.1164 20.8034 22.2164 20.7534H22.5164C22.5664 20.7534 22.5664 20.7784 22.5164 20.8284L22.2164 20.9784L21.8414 21.4284H22.3664L22.8914 21.5034C23.0414 21.4534 23.1664 21.4034 23.2664 21.3534L23.6414 21.1284C23.7914 21.0784 23.9414 21.1284 24.0914 21.2784H24.1664C24.2164 21.3284 24.1914 21.4034 24.0914 21.5034L23.1914 22.3284C22.9414 22.5284 22.7164 22.6534 22.5164 22.7034L21.5414 23.3784C21.4914 23.4284 21.4414 23.4284 21.3914 23.3784L21.1664 23.0784L21.0164 22.7784L20.8284 22.5154L20.6034 22.2154L20.4164 21.9904L20.2664 21.8034L19.9664 21.5784C19.8664 21.5784 19.7664 21.5534 19.6664 21.5034L18.6914 20.7534C18.5414 20.7534 18.3664 20.6784 18.1664 20.5284C17.4164 19.8784 16.9164 19.4784 16.6664 19.3284L16.2164 19.0284L15.3164 18.8784C15.0164 18.8284 14.6164 18.6784 14.1164 18.4284L13.5164 18.1284C13.1164 17.9284 12.8414 17.8284 12.6914 17.8284L12.3914 17.6784C12.1914 17.6284 12.0414 17.5784 11.9414 17.5284L11.7914 17.3784C11.6914 17.3784 11.5914 17.4034 11.4914 17.4534L9.99141 18.2034L8.11641 19.0284C7.61641 19.4284 7.14141 19.7534 6.69141 20.0034L5.86641 20.3784L4.59141 21.2784C4.49141 21.3784 4.39141 21.3784 4.29141 21.2784L4.14141 21.4284C3.99141 21.4784 3.89141 21.5034 3.84141 21.5034L3.54141 21.6534V21.8034H3.39141L3.24141 22.0284C3.14141 22.2284 3.04141 22.3404 2.94141 22.3654C2.84141 22.3904 2.77941 22.4284 2.75441 22.4784C2.73539 22.5194 2.71009 22.5572 2.67941 22.5904L2.52941 22.7404L2.30441 22.8904L1.96641 22.8534L1.51641 22.9284L1.21641 23.0034C0.966406 23.0534 0.766406 23.0154 0.616406 22.8904C0.466406 22.7654 0.341406 22.5784 0.241406 22.3284C0.141406 22.1784 0.191406 22.0534 0.391406 21.9534L0.466406 21.8784C0.516406 21.8284 0.591406 21.8034 0.691406 21.8034H1.14141L1.74141 21.5784L2.04141 21.5034C2.04141 21.4034 2.06641 21.3284 2.11641 21.2784C2.16641 21.2284 2.24141 21.2034 2.34141 21.2034V21.1284C2.29322 21.0356 2.26752 20.9329 2.26641 20.8284C2.21641 20.7284 2.20341 20.6534 2.22941 20.6034C2.25441 20.5534 2.27941 20.5284 2.30441 20.5284H2.34141L2.41641 20.7534C2.46641 21.0034 2.54141 21.0784 2.64141 20.9784L2.71641 20.8284C2.76641 20.7284 2.84141 20.6784 2.94141 20.6784L3.09141 20.8284L3.24141 20.6784L3.16641 20.6034C3.16641 20.5534 3.19141 20.5284 3.24141 20.5284L3.54141 20.2284C3.79141 19.9284 4.09141 19.6534 4.44141 19.4034C5.14141 18.8534 5.89141 18.4284 6.69141 18.1284C6.94141 17.8784 7.21641 17.7534 7.51641 17.7534C7.71641 17.4034 8.01641 17.0284 8.41641 16.6284C8.76641 16.3784 9.01641 16.2034 9.16641 16.1034C9.26641 15.9034 9.39141 15.8034 9.54141 15.8034H9.61641L9.76641 15.6534C9.86641 15.6034 9.94141 15.5534 9.99141 15.5034V15.1284C9.99141 14.8784 10.0164 14.6784 10.0664 14.5284C10.1164 14.3784 10.2414 14.3034 10.4414 14.3034L10.7414 14.0034C10.6414 13.8034 10.5914 13.5784 10.5914 13.3284H10.5164C10.4164 13.1784 10.3664 13.0284 10.3664 12.8784C10.2164 12.6284 10.1164 12.4284 10.0664 12.2784H9.84141C9.79141 12.4284 9.66641 12.5284 9.46641 12.5784L9.39141 12.7284C9.19141 13.0784 9.01641 13.3404 8.86641 13.5154C8.71641 13.6904 8.44141 13.9034 8.04141 14.1534C7.79141 14.4034 7.61641 14.6784 7.51641 14.9784C7.46641 15.1284 7.46641 15.2784 7.51641 15.4284L7.44141 15.5784H7.51641C7.51641 15.6784 7.54141 15.7284 7.59141 15.7284H7.66641C7.76641 15.7784 7.81641 15.8404 7.81641 15.9154C7.81641 15.9904 7.74141 16.0154 7.59141 15.9904C7.46621 15.9766 7.34842 15.9242 7.25441 15.8404C7.17941 15.7654 7.11641 15.7284 7.06641 15.7284L6.84141 15.9534C6.74141 16.1034 6.64141 16.1654 6.54141 16.1404C6.44141 16.1154 6.41641 16.0784 6.46641 16.0284L6.54141 15.9534C6.59141 15.8534 6.59141 15.8034 6.54141 15.8034L5.94141 15.9534C5.89141 16.0034 5.82941 16.0034 5.75441 15.9534C5.67941 15.9034 5.69141 15.8534 5.79141 15.8034L6.16641 15.6534C6.16641 15.6034 6.14141 15.5784 6.09141 15.5784C5.89141 15.6784 5.69141 15.7034 5.49141 15.6534L5.11641 15.5784L5.04141 15.5034C5.04141 15.4534 5.06641 15.4284 5.11641 15.4284C5.31641 15.4784 5.56641 15.4534 5.86641 15.3534L6.39141 15.1284L6.99141 14.4534L7.06641 14.3034C7.26641 13.9034 7.47941 13.5404 7.70441 13.2154C7.90247 12.92 8.14229 12.6549 8.41641 12.4284L8.49141 12.1284C8.59141 11.9284 8.69141 11.7534 8.79141 11.6034C8.89141 11.4534 9.01641 11.2534 9.16641 11.0034L9.39141 10.7034C9.59141 10.4034 9.81641 10.2534 10.0664 10.2534L10.2914 10.0284C10.3414 9.97837 10.3664 9.90337 10.3664 9.80337L10.5164 9.65337L10.4414 9.57837C10.1414 9.32837 9.99141 9.10337 9.99141 8.90337C9.94141 8.55337 10.0544 8.25337 10.3294 8.00337C10.6044 7.75337 10.8794 7.64037 11.1544 7.66537C11.4294 7.69037 11.6414 7.77837 11.7914 7.92837L11.9414 8.07837C11.9914 8.07837 12.0164 8.10337 12.0164 8.15337L12.3164 8.30337V8.52837C12.4164 8.62837 12.4664 8.70337 12.4664 8.75337C12.5664 8.60337 12.7164 8.42837 12.9164 8.22837L13.2914 7.02837C13.2914 6.82837 13.3414 6.62837 13.4414 6.42837L13.5914 6.20337V6.05337L13.8164 5.15337H13.9664L14.1914 4.25337C14.2417 4.08198 14.2417 3.89976 14.1914 3.72837L13.8914 2.97837L13.7414 2.37837Z" fill="black"/>
</svg>
